<?xml version="1.0" encoding="UTF-8" standalone="no"?><svg xmlns="http://www.w3.org/2000/svg" xmlns:xlink="http://www.w3.org/1999/xlink" contentStyleType="text/css" height="614px" preserveAspectRatio="none" style="width:1607px;height:614px;background:#FFFFFF;" version="1.1" viewBox="0 0 1607 614" width="1607px" zoomAndPan="magnify"><defs/><g><!--class genres--><g id="elem_genres"><rect codeLine="25" fill="#FFFFFF" height="127.4219" id="genres" rx="2.5" ry="2.5" style="stroke:#2E8B57;stroke-width:0.5;" width="372.3333" x="7" y="15.5"/><text fill="#000000" font-family="sans-serif" font-size="14" font-weight="bold" lengthAdjust="spacing" textLength="47" x="169.6667" y="33.4951">Genre</text><text fill="#808080" font-family="sans-serif" font-size="10" lengthAdjust="spacing" textLength="45" x="170.6667" y="46.0791">(genres)</text><line style="stroke:#2E8B57;stroke-width:0.5;" x1="8" x2="378.3333" y1="53.4375" y2="53.4375"/><path d="M20.4167,60.901 C18.8067,60.901 17.5,62.2077 17.5,63.8177 C17.5,64.0044 17.5,64.191 17.535,64.366 L14,67.901 L14,70.2344 L17.5,70.2344 L17.5,67.901 L19.8333,67.901 L19.8333,66.7344 L19.8683,66.6994 C20.0433,66.7344 20.23,66.7344 20.4167,66.7344 C22.0267,66.7344 23.3333,65.4277 23.3333,63.8177 C23.3333,62.2077 22.0267,60.901 20.4167,60.901 M21,62.0677 C21.6417,62.0677 22.1667,62.5927 22.1667,63.2344 C22.1667,63.876 21.6417,64.401 21,64.401 C20.3583,64.401 19.8333,63.876 19.8333,63.2344 C19.8333,62.5927 20.3583,62.0677 21,62.0677 " fill="#B8860B" style="stroke:;stroke-width:0.0;stroke-dasharray:;"/><text fill="#000000" font-family="sans-serif" font-size="14" font-weight="bold" lengthAdjust="spacing" textLength="15" x="29.3333" y="70.4326">id</text><text fill="#000000" font-family="sans-serif" font-size="14" lengthAdjust="spacing" textLength="42" x="44.3333" y="70.4326">: UUID</text><path d="M17.5,77.1979 C15.5633,77.1979 14,78.7612 14,80.6979 C14,82.6346 15.5633,84.1979 17.5,84.1979 C19.4367,84.1979 21,82.6346 21,80.6979 C21,78.7612 19.4367,77.1979 17.5,77.1979 " fill="#EFEFEF" style="stroke:;stroke-width:0.0;stroke-dasharray:;"/><text fill="#000000" font-family="sans-serif" font-size="14" lengthAdjust="spacing" textLength="196" x="28.3333" y="86.7295">title: CHARACTER VARYING</text><path d="M17.5,93.4948 C15.5633,93.4948 14,95.0581 14,96.9948 C14,98.9315 15.5633,100.4948 17.5,100.4948 C19.4367,100.4948 21,98.9315 21,96.9948 C21,95.0581 19.4367,93.4948 17.5,93.4948 " fill="#EFEFEF" style="stroke:;stroke-width:0.0;stroke-dasharray:;"/><text fill="#000000" font-family="sans-serif" font-size="14" lengthAdjust="spacing" textLength="247" x="28.3333" y="103.0264">description: CHARACTER VARYING</text><path d="M17.5,109.7917 C15.5633,109.7917 14,111.355 14,113.2917 C14,115.2283 15.5633,116.7917 17.5,116.7917 C19.4367,116.7917 21,115.2283 21,113.2917 C21,111.355 19.4367,109.7917 17.5,109.7917 " fill="#EFEFEF" style="stroke:;stroke-width:0.0;stroke-dasharray:;"/><text fill="#000000" font-family="sans-serif" font-size="14" lengthAdjust="spacing" textLength="341" x="28.3333" y="119.3232">created_at: TIMESTAMP WITHOUT TIME ZONE(6)</text><path d="M17.5,126.0885 C15.5633,126.0885 14,127.6519 14,129.5885 C14,131.5252 15.5633,133.0885 17.5,133.0885 C19.4367,133.0885 21,131.5252 21,129.5885 C21,127.6519 19.4367,126.0885 17.5,126.0885 " fill="#EFEFEF" style="stroke:;stroke-width:0.0;stroke-dasharray:;"/><text fill="#000000" font-family="sans-serif" font-size="14" lengthAdjust="spacing" textLength="345" x="28.3333" y="135.6201">updated_at: TIMESTAMP WITHOUT TIME ZONE(6)</text></g><!--class products--><g id="elem_products"><rect codeLine="33" fill="#FFFFFF" height="257.7969" id="products" rx="2.5" ry="2.5" style="stroke:#2E8B57;stroke-width:0.5;" width="395.3333" x="413.5" y="211"/><text fill="#000000" font-family="sans-serif" font-size="14" font-weight="bold" lengthAdjust="spacing" textLength="64" x="579.1667" y="228.9951">Product</text><text fill="#808080" font-family="sans-serif" font-size="10" lengthAdjust="spacing" textLength="55" x="583.6667" y="241.5791">(products)</text><line style="stroke:#2E8B57;stroke-width:0.5;" x1="414.5" x2="807.8333" y1="248.9375" y2="248.9375"/><path d="M426.9167,256.401 C425.3067,256.401 424,257.7077 424,259.3177 C424,259.5044 424,259.691 424.035,259.866 L420.5,263.401 L420.5,265.7344 L424,265.7344 L424,263.401 L426.3333,263.401 L426.3333,262.2344 L426.3683,262.1994 C426.5433,262.2344 426.73,262.2344 426.9167,262.2344 C428.5267,262.2344 429.8333,260.9277 429.8333,259.3177 C429.8333,257.7077 428.5267,256.401 426.9167,256.401 M427.5,257.5677 C428.1417,257.5677 428.6667,258.0927 428.6667,258.7344 C428.6667,259.376 428.1417,259.901 427.5,259.901 C426.8583,259.901 426.3333,259.376 426.3333,258.7344 C426.3333,258.0927 426.8583,257.5677 427.5,257.5677 " fill="#B8860B" style="stroke:;stroke-width:0.0;stroke-dasharray:;"/><text fill="#000000" font-family="sans-serif" font-size="14" font-weight="bold" lengthAdjust="spacing" textLength="15" x="435.8333" y="265.9326">id</text><text fill="#000000" font-family="sans-serif" font-size="14" lengthAdjust="spacing" textLength="42" x="450.8333" y="265.9326">: UUID</text><path d="M426.9167,272.6979 C425.3067,272.6979 424,274.0046 424,275.6146 C424,275.8013 424,275.9879 424.035,276.1629 L420.5,279.6979 L420.5,282.0313 L424,282.0313 L424,279.6979 L426.3333,279.6979 L426.3333,278.5313 L426.3683,278.4963 C426.5433,278.5313 426.73,278.5313 426.9167,278.5313 C428.5267,278.5313 429.8333,277.2246 429.8333,275.6146 C429.8333,274.0046 428.5267,272.6979 426.9167,272.6979 M427.5,273.8646 C428.1417,273.8646 428.6667,274.3896 428.6667,275.0313 C428.6667,275.6729 428.1417,276.1979 427.5,276.1979 C426.8583,276.1979 426.3333,275.6729 426.3333,275.0313 C426.3333,274.3896 426.8583,273.8646 427.5,273.8646 " fill="#AAAAAA" style="stroke:;stroke-width:0.0;stroke-dasharray:;"/><text fill="#000000" font-family="sans-serif" font-size="14" lengthAdjust="spacing" textLength="133" x="434.8333" y="282.2295">gameId: UUID «FK»</text><path d="M424,288.9948 C422.0633,288.9948 420.5,290.5581 420.5,292.4948 C420.5,294.4315 422.0633,295.9948 424,295.9948 C425.9367,295.9948 427.5,294.4315 427.5,292.4948 C427.5,290.5581 425.9367,288.9948 424,288.9948 " fill="#EFEFEF" style="stroke:;stroke-width:0.0;stroke-dasharray:;"/><text fill="#000000" font-family="sans-serif" font-size="14" lengthAdjust="spacing" textLength="205" x="434.8333" y="298.5264">name: CHARACTER VARYING</text><path d="M424,305.2917 C422.0633,305.2917 420.5,306.855 420.5,308.7917 C420.5,310.7283 422.0633,312.2917 424,312.2917 C425.9367,312.2917 427.5,310.7283 427.5,308.7917 C427.5,306.855 425.9367,305.2917 424,305.2917 " fill="#EFEFEF" style="stroke:;stroke-width:0.0;stroke-dasharray:;"/><text fill="#000000" font-family="sans-serif" font-size="14" lengthAdjust="spacing" textLength="247" x="434.8333" y="314.8232">description: CHARACTER VARYING</text><path d="M424,321.5885 C422.0633,321.5885 420.5,323.1519 420.5,325.0885 C420.5,327.0252 422.0633,328.5885 424,328.5885 C425.9367,328.5885 427.5,327.0252 427.5,325.0885 C427.5,323.1519 425.9367,321.5885 424,321.5885 " fill="#EFEFEF" style="stroke:;stroke-width:0.0;stroke-dasharray:;"/><text fill="#000000" font-family="sans-serif" font-size="14" lengthAdjust="spacing" textLength="229" x="434.8333" y="331.1201">category: CHARACTER VARYING</text><path d="M424,337.8854 C422.0633,337.8854 420.5,339.4488 420.5,341.3854 C420.5,343.3221 422.0633,344.8854 424,344.8854 C425.9367,344.8854 427.5,343.3221 427.5,341.3854 C427.5,339.4488 425.9367,337.8854 424,337.8854 " fill="#EFEFEF" style="stroke:;stroke-width:0.0;stroke-dasharray:;"/><text fill="#000000" font-family="sans-serif" font-size="14" lengthAdjust="spacing" textLength="209" x="434.8333" y="347.417">status: CHARACTER VARYING</text><path d="M424,354.1823 C422.0633,354.1823 420.5,355.7456 420.5,357.6823 C420.5,359.619 422.0633,361.1823 424,361.1823 C425.9367,361.1823 427.5,359.619 427.5,357.6823 C427.5,355.7456 425.9367,354.1823 424,354.1823 " fill="#EFEFEF" style="stroke:;stroke-width:0.0;stroke-dasharray:;"/><text fill="#000000" font-family="sans-serif" font-size="14" lengthAdjust="spacing" textLength="137" x="434.8333" y="363.7139">price_full: INTEGER</text><path d="M424,370.4792 C422.0633,370.4792 420.5,372.0425 420.5,373.9792 C420.5,375.9158 422.0633,377.4792 424,377.4792 C425.9367,377.4792 427.5,375.9158 427.5,373.9792 C427.5,372.0425 425.9367,370.4792 424,370.4792 " fill="#EFEFEF" style="stroke:;stroke-width:0.0;stroke-dasharray:;"/><text fill="#000000" font-family="sans-serif" font-size="14" lengthAdjust="spacing" textLength="143" x="434.8333" y="380.0107">price_sale: INTEGER</text><path d="M424,386.776 C422.0633,386.776 420.5,388.3394 420.5,390.276 C420.5,392.2127 422.0633,393.776 424,393.776 C425.9367,393.776 427.5,392.2127 427.5,390.276 C427.5,388.3394 425.9367,386.776 424,386.776 " fill="#EFEFEF" style="stroke:;stroke-width:0.0;stroke-dasharray:;"/><text fill="#000000" font-family="sans-serif" font-size="14" lengthAdjust="spacing" textLength="368" x="434.8333" y="396.3076">available_start: TIMESTAMP WITHOUT TIME ZONE(6)</text><path d="M424,403.0729 C422.0633,403.0729 420.5,404.6362 420.5,406.5729 C420.5,408.5096 422.0633,410.0729 424,410.0729 C425.9367,410.0729 427.5,408.5096 427.5,406.5729 C427.5,404.6362 425.9367,403.0729 424,403.0729 " fill="#EFEFEF" style="stroke:;stroke-width:0.0;stroke-dasharray:;"/><text fill="#000000" font-family="sans-serif" font-size="14" lengthAdjust="spacing" textLength="360" x="434.8333" y="412.6045">available_end: TIMESTAMP WITHOUT TIME ZONE(6)</text><path d="M424,419.3698 C422.0633,419.3698 420.5,420.9331 420.5,422.8698 C420.5,424.8065 422.0633,426.3698 424,426.3698 C425.9367,426.3698 427.5,424.8065 427.5,422.8698 C427.5,420.9331 425.9367,419.3698 424,419.3698 " fill="#EFEFEF" style="stroke:;stroke-width:0.0;stroke-dasharray:;"/><text fill="#000000" font-family="sans-serif" font-size="14" lengthAdjust="spacing" textLength="140" x="434.8333" y="428.9014">inventory: INTEGER</text><path d="M424,435.6667 C422.0633,435.6667 420.5,437.23 420.5,439.1667 C420.5,441.1033 422.0633,442.6667 424,442.6667 C425.9367,442.6667 427.5,441.1033 427.5,439.1667 C427.5,437.23 425.9367,435.6667 424,435.6667 " fill="#EFEFEF" style="stroke:;stroke-width:0.0;stroke-dasharray:;"/><text fill="#000000" font-family="sans-serif" font-size="14" lengthAdjust="spacing" textLength="341" x="434.8333" y="445.1982">created_at: TIMESTAMP WITHOUT TIME ZONE(6)</text><path d="M424,451.9635 C422.0633,451.9635 420.5,453.5269 420.5,455.4635 C420.5,457.4002 422.0633,458.9635 424,458.9635 C425.9367,458.9635 427.5,457.4002 427.5,455.4635 C427.5,453.5269 425.9367,451.9635 424,451.9635 " fill="#EFEFEF" style="stroke:;stroke-width:0.0;stroke-dasharray:;"/><text fill="#000000" font-family="sans-serif" font-size="14" lengthAdjust="spacing" textLength="345" x="434.8333" y="461.4951">updated_at: TIMESTAMP WITHOUT TIME ZONE(6)</text></g><!--class orders--><g id="elem_orders"><rect codeLine="49" fill="#FFFFFF" height="143.7188" id="orders" rx="2.5" ry="2.5" style="stroke:#2E8B57;stroke-width:0.5;" width="372.3333" x="1228" y="7"/><text fill="#000000" font-family="sans-serif" font-size="14" font-weight="bold" lengthAdjust="spacing" textLength="45" x="1391.6667" y="24.9951">Order</text><text fill="#808080" font-family="sans-serif" font-size="10" lengthAdjust="spacing" textLength="42" x="1393.1667" y="37.5791">(orders)</text><line style="stroke:#2E8B57;stroke-width:0.5;" x1="1229" x2="1599.3333" y1="44.9375" y2="44.9375"/><path d="M1241.4167,52.401 C1239.8067,52.401 1238.5,53.7077 1238.5,55.3177 C1238.5,55.5044 1238.5,55.691 1238.535,55.866 L1235,59.401 L1235,61.7344 L1238.5,61.7344 L1238.5,59.401 L1240.8333,59.401 L1240.8333,58.2344 L1240.8683,58.1994 C1241.0433,58.2344 1241.23,58.2344 1241.4167,58.2344 C1243.0267,58.2344 1244.3333,56.9277 1244.3333,55.3177 C1244.3333,53.7077 1243.0267,52.401 1241.4167,52.401 M1242,53.5677 C1242.6417,53.5677 1243.1667,54.0927 1243.1667,54.7344 C1243.1667,55.376 1242.6417,55.901 1242,55.901 C1241.3583,55.901 1240.8333,55.376 1240.8333,54.7344 C1240.8333,54.0927 1241.3583,53.5677 1242,53.5677 " fill="#B8860B" style="stroke:;stroke-width:0.0;stroke-dasharray:;"/><text fill="#000000" font-family="sans-serif" font-size="14" font-weight="bold" lengthAdjust="spacing" textLength="15" x="1250.3333" y="61.9326">id</text><text fill="#000000" font-family="sans-serif" font-size="14" lengthAdjust="spacing" textLength="42" x="1265.3333" y="61.9326">: UUID</text><path d="M1238.5,68.6979 C1236.5633,68.6979 1235,70.2612 1235,72.1979 C1235,74.1346 1236.5633,75.6979 1238.5,75.6979 C1240.4367,75.6979 1242,74.1346 1242,72.1979 C1242,70.2612 1240.4367,68.6979 1238.5,68.6979 " fill="#EFEFEF" style="stroke:;stroke-width:0.0;stroke-dasharray:;"/><text fill="#000000" font-family="sans-serif" font-size="14" lengthAdjust="spacing" textLength="127" x="1249.3333" y="78.2295">number: INTEGER</text><path d="M1238.5,84.9948 C1236.5633,84.9948 1235,86.5581 1235,88.4948 C1235,90.4315 1236.5633,91.9948 1238.5,91.9948 C1240.4367,91.9948 1242,90.4315 1242,88.4948 C1242,86.5581 1240.4367,84.9948 1238.5,84.9948 " fill="#EFEFEF" style="stroke:;stroke-width:0.0;stroke-dasharray:;"/><text fill="#000000" font-family="sans-serif" font-size="14" lengthAdjust="spacing" textLength="215" x="1249.3333" y="94.5264">usersId: CHARACTER VARYING</text><path d="M1238.5,101.2917 C1236.5633,101.2917 1235,102.855 1235,104.7917 C1235,106.7283 1236.5633,108.2917 1238.5,108.2917 C1240.4367,108.2917 1242,106.7283 1242,104.7917 C1242,102.855 1240.4367,101.2917 1238.5,101.2917 " fill="#EFEFEF" style="stroke:;stroke-width:0.0;stroke-dasharray:;"/><text fill="#000000" font-family="sans-serif" font-size="14" lengthAdjust="spacing" textLength="209" x="1249.3333" y="110.8232">status: CHARACTER VARYING</text><path d="M1238.5,117.5885 C1236.5633,117.5885 1235,119.1519 1235,121.0885 C1235,123.0252 1236.5633,124.5885 1238.5,124.5885 C1240.4367,124.5885 1242,123.0252 1242,121.0885 C1242,119.1519 1240.4367,117.5885 1238.5,117.5885 " fill="#EFEFEF" style="stroke:;stroke-width:0.0;stroke-dasharray:;"/><text fill="#000000" font-family="sans-serif" font-size="14" lengthAdjust="spacing" textLength="341" x="1249.3333" y="127.1201">created_at: TIMESTAMP WITHOUT TIME ZONE(6)</text><path d="M1238.5,133.8854 C1236.5633,133.8854 1235,135.4488 1235,137.3854 C1235,139.3221 1236.5633,140.8854 1238.5,140.8854 C1240.4367,140.8854 1242,139.3221 1242,137.3854 C1242,135.4488 1240.4367,133.8854 1238.5,133.8854 " fill="#EFEFEF" style="stroke:;stroke-width:0.0;stroke-dasharray:;"/><text fill="#000000" font-family="sans-serif" font-size="14" lengthAdjust="spacing" textLength="345" x="1249.3333" y="143.417">updated_at: TIMESTAMP WITHOUT TIME ZONE(6)</text></g><!--class users--><g id="elem_users"><rect codeLine="58" fill="#FFFFFF" height="143.7188" id="users" rx="2.5" ry="2.5" style="stroke:#2E8B57;stroke-width:0.5;" width="372.3333" x="821" y="7"/><text fill="#000000" font-family="sans-serif" font-size="14" font-weight="bold" lengthAdjust="spacing" textLength="36" x="989.1667" y="24.9951">User</text><text fill="#808080" font-family="sans-serif" font-size="10" lengthAdjust="spacing" textLength="36" x="989.1667" y="37.5791">(users)</text><line style="stroke:#2E8B57;stroke-width:0.5;" x1="822" x2="1192.3333" y1="44.9375" y2="44.9375"/><path d="M834.4167,52.401 C832.8067,52.401 831.5,53.7077 831.5,55.3177 C831.5,55.5044 831.5,55.691 831.535,55.866 L828,59.401 L828,61.7344 L831.5,61.7344 L831.5,59.401 L833.8333,59.401 L833.8333,58.2344 L833.8683,58.1994 C834.0433,58.2344 834.23,58.2344 834.4167,58.2344 C836.0267,58.2344 837.3333,56.9277 837.3333,55.3177 C837.3333,53.7077 836.0267,52.401 834.4167,52.401 M835,53.5677 C835.6417,53.5677 836.1667,54.0927 836.1667,54.7344 C836.1667,55.376 835.6417,55.901 835,55.901 C834.3583,55.901 833.8333,55.376 833.8333,54.7344 C833.8333,54.0927 834.3583,53.5677 835,53.5677 " fill="#B8860B" style="stroke:;stroke-width:0.0;stroke-dasharray:;"/><text fill="#000000" font-family="sans-serif" font-size="14" font-weight="bold" lengthAdjust="spacing" textLength="15" x="843.3333" y="61.9326">id</text><text fill="#000000" font-family="sans-serif" font-size="14" lengthAdjust="spacing" textLength="42" x="858.3333" y="61.9326">: UUID</text><path d="M831.5,68.6979 C829.5633,68.6979 828,70.2612 828,72.1979 C828,74.1346 829.5633,75.6979 831.5,75.6979 C833.4367,75.6979 835,74.1346 835,72.1979 C835,70.2612 833.4367,68.6979 831.5,68.6979 " fill="#EFEFEF" style="stroke:;stroke-width:0.0;stroke-dasharray:;"/><text fill="#000000" font-family="sans-serif" font-size="14" lengthAdjust="spacing" textLength="242" x="842.3333" y="78.2295">first_name: CHARACTER VARYING</text><path d="M831.5,84.9948 C829.5633,84.9948 828,86.5581 828,88.4948 C828,90.4315 829.5633,91.9948 831.5,91.9948 C833.4367,91.9948 835,90.4315 835,88.4948 C835,86.5581 833.4367,84.9948 831.5,84.9948 " fill="#EFEFEF" style="stroke:;stroke-width:0.0;stroke-dasharray:;"/><text fill="#000000" font-family="sans-serif" font-size="14" lengthAdjust="spacing" textLength="238" x="842.3333" y="94.5264">last_name: CHARACTER VARYING</text><path d="M831.5,101.2917 C829.5633,101.2917 828,102.855 828,104.7917 C828,106.7283 829.5633,108.2917 831.5,108.2917 C833.4367,108.2917 835,106.7283 835,104.7917 C835,102.855 833.4367,101.2917 831.5,101.2917 " fill="#EFEFEF" style="stroke:;stroke-width:0.0;stroke-dasharray:;"/><text fill="#000000" font-family="sans-serif" font-size="14" lengthAdjust="spacing" textLength="204" x="842.3333" y="110.8232">email: CHARACTER VARYING</text><path d="M831.5,117.5885 C829.5633,117.5885 828,119.1519 828,121.0885 C828,123.0252 829.5633,124.5885 831.5,124.5885 C833.4367,124.5885 835,123.0252 835,121.0885 C835,119.1519 833.4367,117.5885 831.5,117.5885 " fill="#EFEFEF" style="stroke:;stroke-width:0.0;stroke-dasharray:;"/><text fill="#000000" font-family="sans-serif" font-size="14" lengthAdjust="spacing" textLength="341" x="842.3333" y="127.1201">created_at: TIMESTAMP WITHOUT TIME ZONE(6)</text><path d="M831.5,133.8854 C829.5633,133.8854 828,135.4488 828,137.3854 C828,139.3221 829.5633,140.8854 831.5,140.8854 C833.4367,140.8854 835,139.3221 835,137.3854 C835,135.4488 833.4367,133.8854 831.5,133.8854 " fill="#EFEFEF" style="stroke:;stroke-width:0.0;stroke-dasharray:;"/><text fill="#000000" font-family="sans-serif" font-size="14" lengthAdjust="spacing" textLength="345" x="842.3333" y="143.417">updated_at: TIMESTAMP WITHOUT TIME ZONE(6)</text></g><!--class games--><g id="elem_games"><rect codeLine="67" fill="#FFFFFF" height="111.125" id="games" rx="2.5" ry="2.5" style="stroke:#2E8B57;stroke-width:0.5;" width="372.3333" x="414" y="23.5"/><text fill="#000000" font-family="sans-serif" font-size="14" font-weight="bold" lengthAdjust="spacing" textLength="46" x="577.1667" y="41.4951">Game</text><text fill="#808080" font-family="sans-serif" font-size="10" lengthAdjust="spacing" textLength="45" x="577.6667" y="54.0791">(games)</text><line style="stroke:#2E8B57;stroke-width:0.5;" x1="415" x2="785.3333" y1="61.4375" y2="61.4375"/><path d="M427.4167,68.901 C425.8067,68.901 424.5,70.2077 424.5,71.8177 C424.5,72.0044 424.5,72.191 424.535,72.366 L421,75.901 L421,78.2344 L424.5,78.2344 L424.5,75.901 L426.8333,75.901 L426.8333,74.7344 L426.8683,74.6994 C427.0433,74.7344 427.23,74.7344 427.4167,74.7344 C429.0267,74.7344 430.3333,73.4277 430.3333,71.8177 C430.3333,70.2077 429.0267,68.901 427.4167,68.901 M428,70.0677 C428.6417,70.0677 429.1667,70.5927 429.1667,71.2344 C429.1667,71.876 428.6417,72.401 428,72.401 C427.3583,72.401 426.8333,71.876 426.8333,71.2344 C426.8333,70.5927 427.3583,70.0677 428,70.0677 " fill="#B8860B" style="stroke:;stroke-width:0.0;stroke-dasharray:;"/><text fill="#000000" font-family="sans-serif" font-size="14" font-weight="bold" lengthAdjust="spacing" textLength="15" x="436.3333" y="78.4326">id</text><text fill="#000000" font-family="sans-serif" font-size="14" lengthAdjust="spacing" textLength="42" x="451.3333" y="78.4326">: UUID</text><path d="M424.5,85.1979 C422.5633,85.1979 421,86.7612 421,88.6979 C421,90.6346 422.5633,92.1979 424.5,92.1979 C426.4367,92.1979 428,90.6346 428,88.6979 C428,86.7612 426.4367,85.1979 424.5,85.1979 " fill="#EFEFEF" style="stroke:;stroke-width:0.0;stroke-dasharray:;"/><text fill="#000000" font-family="sans-serif" font-size="14" lengthAdjust="spacing" textLength="196" x="435.3333" y="94.7295">title: CHARACTER VARYING</text><path d="M424.5,101.4948 C422.5633,101.4948 421,103.0581 421,104.9948 C421,106.9315 422.5633,108.4948 424.5,108.4948 C426.4367,108.4948 428,106.9315 428,104.9948 C428,103.0581 426.4367,101.4948 424.5,101.4948 " fill="#EFEFEF" style="stroke:;stroke-width:0.0;stroke-dasharray:;"/><text fill="#000000" font-family="sans-serif" font-size="14" lengthAdjust="spacing" textLength="341" x="435.3333" y="111.0264">created_at: TIMESTAMP WITHOUT TIME ZONE(6)</text><path d="M424.5,117.7917 C422.5633,117.7917 421,119.355 421,121.2917 C421,123.2283 422.5633,124.7917 424.5,124.7917 C426.4367,124.7917 428,123.2283 428,121.2917 C428,119.355 426.4367,117.7917 424.5,117.7917 " fill="#EFEFEF" style="stroke:;stroke-width:0.0;stroke-dasharray:;"/><text fill="#000000" font-family="sans-serif" font-size="14" lengthAdjust="spacing" textLength="345" x="435.3333" y="127.3232">updated_at: TIMESTAMP WITHOUT TIME ZONE(6)</text></g><!--class orders_users_users--><g id="elem_orders_users_users"><rect codeLine="74" fill="#FFFFFF" height="78.5313" id="orders_users_users" rx="2.5" ry="2.5" style="stroke:#2E8B57;stroke-width:0.5;" width="160" x="1147" y="300.5"/><text fill="#000000" font-family="sans-serif" font-size="14" font-weight="bold" lengthAdjust="spacing" textLength="154" x="1150" y="318.4951">orders_users_users</text><text fill="#808080" font-family="sans-serif" font-size="10" lengthAdjust="spacing" textLength="108" x="1173" y="331.0791">(orders_users_users)</text><line style="stroke:#2E8B57;stroke-width:0.5;" x1="1148" x2="1306" y1="338.4375" y2="338.4375"/><path d="M1160.4167,345.901 C1158.8067,345.901 1157.5,347.2077 1157.5,348.8177 C1157.5,349.0044 1157.5,349.191 1157.535,349.366 L1154,352.901 L1154,355.2344 L1157.5,355.2344 L1157.5,352.901 L1159.8333,352.901 L1159.8333,351.7344 L1159.8683,351.6994 C1160.0433,351.7344 1160.23,351.7344 1160.4167,351.7344 C1162.0267,351.7344 1163.3333,350.4277 1163.3333,348.8177 C1163.3333,347.2077 1162.0267,345.901 1160.4167,345.901 M1161,347.0677 C1161.6417,347.0677 1162.1667,347.5927 1162.1667,348.2344 C1162.1667,348.876 1161.6417,349.401 1161,349.401 C1160.3583,349.401 1159.8333,348.876 1159.8333,348.2344 C1159.8333,347.5927 1160.3583,347.0677 1161,347.0677 " fill="#B8860B" style="stroke:;stroke-width:0.0;stroke-dasharray:;"/><text fill="#000000" font-family="sans-serif" font-size="14" font-weight="bold" lengthAdjust="spacing" textLength="67" x="1169.3333" y="355.4326">ordersId</text><text fill="#000000" font-family="sans-serif" font-size="14" lengthAdjust="spacing" textLength="42" x="1236.3333" y="355.4326">: UUID</text><path d="M1160.4167,362.1979 C1158.8067,362.1979 1157.5,363.5046 1157.5,365.1146 C1157.5,365.3013 1157.5,365.4879 1157.535,365.6629 L1154,369.1979 L1154,371.5313 L1157.5,371.5313 L1157.5,369.1979 L1159.8333,369.1979 L1159.8333,368.0313 L1159.8683,367.9963 C1160.0433,368.0313 1160.23,368.0313 1160.4167,368.0313 C1162.0267,368.0313 1163.3333,366.7246 1163.3333,365.1146 C1163.3333,363.5046 1162.0267,362.1979 1160.4167,362.1979 M1161,363.3646 C1161.6417,363.3646 1162.1667,363.8896 1162.1667,364.5313 C1162.1667,365.1729 1161.6417,365.6979 1161,365.6979 C1160.3583,365.6979 1159.8333,365.1729 1159.8333,364.5313 C1159.8333,363.8896 1160.3583,363.3646 1161,363.3646 " fill="#B8860B" style="stroke:;stroke-width:0.0;stroke-dasharray:;"/><text fill="#000000" font-family="sans-serif" font-size="14" font-weight="bold" lengthAdjust="spacing" textLength="59" x="1169.3333" y="371.7295">usersId</text><text fill="#000000" font-family="sans-serif" font-size="14" lengthAdjust="spacing" textLength="42" x="1228.3333" y="371.7295">: UUID</text></g><!--class orders_products_products--><g id="elem_orders_products_products"><rect codeLine="79" fill="#FFFFFF" height="78.5313" id="orders_products_products" rx="2.5" ry="2.5" style="stroke:#2E8B57;stroke-width:0.5;" width="218" x="898" y="529"/><text fill="#000000" font-family="sans-serif" font-size="14" font-weight="bold" lengthAdjust="spacing" textLength="212" x="901" y="546.9951">orders_products_products</text><text fill="#808080" font-family="sans-serif" font-size="10" lengthAdjust="spacing" textLength="146" x="934" y="559.5791">(orders_products_products)</text><line style="stroke:#2E8B57;stroke-width:0.5;" x1="899" x2="1115" y1="566.9375" y2="566.9375"/><path d="M911.4167,574.401 C909.8067,574.401 908.5,575.7077 908.5,577.3177 C908.5,577.5044 908.5,577.691 908.535,577.866 L905,581.401 L905,583.7344 L908.5,583.7344 L908.5,581.401 L910.8333,581.401 L910.8333,580.2344 L910.8683,580.1994 C911.0433,580.2344 911.23,580.2344 911.4167,580.2344 C913.0267,580.2344 914.3333,578.9277 914.3333,577.3177 C914.3333,575.7077 913.0267,574.401 911.4167,574.401 M912,575.5677 C912.6417,575.5677 913.1667,576.0927 913.1667,576.7344 C913.1667,577.376 912.6417,577.901 912,577.901 C911.3583,577.901 910.8333,577.376 910.8333,576.7344 C910.8333,576.0927 911.3583,575.5677 912,575.5677 " fill="#B8860B" style="stroke:;stroke-width:0.0;stroke-dasharray:;"/><text fill="#000000" font-family="sans-serif" font-size="14" font-weight="bold" lengthAdjust="spacing" textLength="67" x="920.3333" y="583.9326">ordersId</text><text fill="#000000" font-family="sans-serif" font-size="14" lengthAdjust="spacing" textLength="42" x="987.3333" y="583.9326">: UUID</text><path d="M911.4167,590.6979 C909.8067,590.6979 908.5,592.0046 908.5,593.6146 C908.5,593.8013 908.5,593.9879 908.535,594.1629 L905,597.6979 L905,600.0313 L908.5,600.0313 L908.5,597.6979 L910.8333,597.6979 L910.8333,596.5313 L910.8683,596.4962 C911.0433,596.5313 911.23,596.5313 911.4167,596.5313 C913.0267,596.5313 914.3333,595.2246 914.3333,593.6146 C914.3333,592.0046 913.0267,590.6979 911.4167,590.6979 M912,591.8646 C912.6417,591.8646 913.1667,592.3896 913.1667,593.0313 C913.1667,593.6729 912.6417,594.1979 912,594.1979 C911.3583,594.1979 910.8333,593.6729 910.8333,593.0313 C910.8333,592.3896 911.3583,591.8646 912,591.8646 " fill="#B8860B" style="stroke:;stroke-width:0.0;stroke-dasharray:;"/><text fill="#000000" font-family="sans-serif" font-size="14" font-weight="bold" lengthAdjust="spacing" textLength="88" x="920.3333" y="600.2295">productsId</text><text fill="#000000" font-family="sans-serif" font-size="14" lengthAdjust="spacing" textLength="42" x="1008.3333" y="600.2295">: UUID</text></g><!--class games_genres_genres--><g id="elem_games_genres_genres"><rect codeLine="84" fill="#FFFFFF" height="78.5313" id="games_genres_genres" rx="2.5" ry="2.5" style="stroke:#2E8B57;stroke-width:0.5;" width="181" x="144.5" y="300.5"/><text fill="#000000" font-family="sans-serif" font-size="14" font-weight="bold" lengthAdjust="spacing" textLength="175" x="147.5" y="318.4951">games_genres_genres</text><text fill="#808080" font-family="sans-serif" font-size="10" lengthAdjust="spacing" textLength="129" x="170.5" y="331.0791">(games_genres_genres)</text><line style="stroke:#2E8B57;stroke-width:0.5;" x1="145.5" x2="324.5" y1="338.4375" y2="338.4375"/><path d="M157.9167,345.901 C156.3067,345.901 155,347.2077 155,348.8177 C155,349.0044 155,349.191 155.035,349.366 L151.5,352.901 L151.5,355.2344 L155,355.2344 L155,352.901 L157.3333,352.901 L157.3333,351.7344 L157.3683,351.6994 C157.5433,351.7344 157.73,351.7344 157.9167,351.7344 C159.5267,351.7344 160.8333,350.4277 160.8333,348.8177 C160.8333,347.2077 159.5267,345.901 157.9167,345.901 M158.5,347.0677 C159.1417,347.0677 159.6667,347.5927 159.6667,348.2344 C159.6667,348.876 159.1417,349.401 158.5,349.401 C157.8583,349.401 157.3333,348.876 157.3333,348.2344 C157.3333,347.5927 157.8583,347.0677 158.5,347.0677 " fill="#B8860B" style="stroke:;stroke-width:0.0;stroke-dasharray:;"/><text fill="#000000" font-family="sans-serif" font-size="14" font-weight="bold" lengthAdjust="spacing" textLength="68" x="166.8333" y="355.4326">gamesId</text><text fill="#000000" font-family="sans-serif" font-size="14" lengthAdjust="spacing" textLength="42" x="234.8333" y="355.4326">: UUID</text><path d="M157.9167,362.1979 C156.3067,362.1979 155,363.5046 155,365.1146 C155,365.3013 155,365.4879 155.035,365.6629 L151.5,369.1979 L151.5,371.5313 L155,371.5313 L155,369.1979 L157.3333,369.1979 L157.3333,368.0313 L157.3683,367.9963 C157.5433,368.0313 157.73,368.0313 157.9167,368.0313 C159.5267,368.0313 160.8333,366.7246 160.8333,365.1146 C160.8333,363.5046 159.5267,362.1979 157.9167,362.1979 M158.5,363.3646 C159.1417,363.3646 159.6667,363.8896 159.6667,364.5313 C159.6667,365.1729 159.1417,365.6979 158.5,365.6979 C157.8583,365.6979 157.3333,365.1729 157.3333,364.5313 C157.3333,363.8896 157.8583,363.3646 158.5,363.3646 " fill="#B8860B" style="stroke:;stroke-width:0.0;stroke-dasharray:;"/><text fill="#000000" font-family="sans-serif" font-size="14" font-weight="bold" lengthAdjust="spacing" textLength="69" x="166.8333" y="371.7295">genresId</text><text fill="#000000" font-family="sans-serif" font-size="14" lengthAdjust="spacing" textLength="42" x="235.8333" y="371.7295">: UUID</text></g><!--class games_users_users--><g id="elem_games_users_users"><rect codeLine="89" fill="#FFFFFF" height="78.5313" id="games_users_users" rx="2.5" ry="2.5" style="stroke:#2E8B57;stroke-width:0.5;" width="161" x="864.5" y="300.5"/><text fill="#000000" font-family="sans-serif" font-size="14" font-weight="bold" lengthAdjust="spacing" textLength="155" x="867.5" y="318.4951">games_users_users</text><text fill="#808080" font-family="sans-serif" font-size="10" lengthAdjust="spacing" textLength="111" x="889.5" y="331.0791">(games_users_users)</text><line style="stroke:#2E8B57;stroke-width:0.5;" x1="865.5" x2="1024.5" y1="338.4375" y2="338.4375"/><path d="M877.9167,345.901 C876.3067,345.901 875,347.2077 875,348.8177 C875,349.0044 875,349.191 875.035,349.366 L871.5,352.901 L871.5,355.2344 L875,355.2344 L875,352.901 L877.3333,352.901 L877.3333,351.7344 L877.3683,351.6994 C877.5433,351.7344 877.73,351.7344 877.9167,351.7344 C879.5267,351.7344 880.8333,350.4277 880.8333,348.8177 C880.8333,347.2077 879.5267,345.901 877.9167,345.901 M878.5,347.0677 C879.1417,347.0677 879.6667,347.5927 879.6667,348.2344 C879.6667,348.876 879.1417,349.401 878.5,349.401 C877.8583,349.401 877.3333,348.876 877.3333,348.2344 C877.3333,347.5927 877.8583,347.0677 878.5,347.0677 " fill="#B8860B" style="stroke:;stroke-width:0.0;stroke-dasharray:;"/><text fill="#000000" font-family="sans-serif" font-size="14" font-weight="bold" lengthAdjust="spacing" textLength="68" x="886.8333" y="355.4326">gamesId</text><text fill="#000000" font-family="sans-serif" font-size="14" lengthAdjust="spacing" textLength="42" x="954.8333" y="355.4326">: UUID</text><path d="M877.9167,362.1979 C876.3067,362.1979 875,363.5046 875,365.1146 C875,365.3013 875,365.4879 875.035,365.6629 L871.5,369.1979 L871.5,371.5313 L875,371.5313 L875,369.1979 L877.3333,369.1979 L877.3333,368.0313 L877.3683,367.9963 C877.5433,368.0313 877.73,368.0313 877.9167,368.0313 C879.5267,368.0313 880.8333,366.7246 880.8333,365.1146 C880.8333,363.5046 879.5267,362.1979 877.9167,362.1979 M878.5,363.3646 C879.1417,363.3646 879.6667,363.8896 879.6667,364.5313 C879.6667,365.1729 879.1417,365.6979 878.5,365.6979 C877.8583,365.6979 877.3333,365.1729 877.3333,364.5313 C877.3333,363.8896 877.8583,363.3646 878.5,363.3646 " fill="#B8860B" style="stroke:;stroke-width:0.0;stroke-dasharray:;"/><text fill="#000000" font-family="sans-serif" font-size="14" font-weight="bold" lengthAdjust="spacing" textLength="59" x="886.8333" y="371.7295">usersId</text><text fill="#000000" font-family="sans-serif" font-size="14" lengthAdjust="spacing" textLength="42" x="945.8333" y="371.7295">: UUID</text></g><!--link games to products--><g id="link_games_products"><path codeLine="94" d="M600,142.671 C600,142.671 600,202.893 600,202.893 " fill="none" id="games-products" style="stroke:#2E8B57;stroke-width:1.0;"/><line style="stroke:#2E8B57;stroke-width:1.0;" x1="596" x2="604" y1="138.671" y2="138.671"/><line style="stroke:#2E8B57;stroke-width:1.0;" x1="596" x2="604" y1="141.671" y2="141.671"/><line style="stroke:#2E8B57;stroke-width:1.0;" x1="600" x2="600" y1="142.671" y2="134.671"/><line style="stroke:#2E8B57;stroke-width:1.0;" x1="600" x2="606" y1="202.893" y2="210.893"/><line style="stroke:#2E8B57;stroke-width:1.0;" x1="600" x2="594" y1="202.893" y2="210.893"/><line style="stroke:#2E8B57;stroke-width:1.0;" x1="600" x2="600" y1="202.893" y2="210.893"/><line style="stroke:#2E8B57;stroke-width:1.0;" x1="604" x2="596" y1="200.893" y2="200.893"/></g><!--link orders to orders_users_users--><g id="link_orders_orders_users_users"><path codeLine="95" d="M1267.5,159.01 C1267.5,159.01 1267.5,292.201 1267.5,292.201 " fill="none" id="orders-orders_users_users" style="stroke:#2E8B57;stroke-width:1.0;"/><line style="stroke:#2E8B57;stroke-width:1.0;" x1="1263.5" x2="1271.5" y1="155.01" y2="155.01"/><line style="stroke:#2E8B57;stroke-width:1.0;" x1="1263.5" x2="1271.5" y1="158.01" y2="158.01"/><line style="stroke:#2E8B57;stroke-width:1.0;" x1="1267.5" x2="1267.5" y1="159.01" y2="151.01"/><line style="stroke:#2E8B57;stroke-width:1.0;" x1="1267.5" x2="1273.5" y1="292.201" y2="300.201"/><line style="stroke:#2E8B57;stroke-width:1.0;" x1="1267.5" x2="1261.5" y1="292.201" y2="300.201"/><line style="stroke:#2E8B57;stroke-width:1.0;" x1="1267.5" x2="1267.5" y1="292.201" y2="300.201"/><line style="stroke:#2E8B57;stroke-width:1.0;" x1="1271.5" x2="1263.5" y1="290.201" y2="290.201"/></g><!--link users to orders_users_users--><g id="link_users_orders_users_users"><path codeLine="96" d="M1170,159.01 C1170,159.01 1170,292.201 1170,292.201 " fill="none" id="users-orders_users_users" style="stroke:#2E8B57;stroke-width:1.0;"/><line style="stroke:#2E8B57;stroke-width:1.0;" x1="1166" x2="1174" y1="155.01" y2="155.01"/><line style="stroke:#2E8B57;stroke-width:1.0;" x1="1166" x2="1174" y1="158.01" y2="158.01"/><line style="stroke:#2E8B57;stroke-width:1.0;" x1="1170" x2="1170" y1="159.01" y2="151.01"/><line style="stroke:#2E8B57;stroke-width:1.0;" x1="1170" x2="1176" y1="292.201" y2="300.201"/><line style="stroke:#2E8B57;stroke-width:1.0;" x1="1170" x2="1164" y1="292.201" y2="300.201"/><line style="stroke:#2E8B57;stroke-width:1.0;" x1="1170" x2="1170" y1="292.201" y2="300.201"/><line style="stroke:#2E8B57;stroke-width:1.0;" x1="1174" x2="1166" y1="290.201" y2="290.201"/></g><!--link orders to orders_products_products--><g id="link_orders_orders_products_products"><path codeLine="97" d="M1453.5,159.038 C1453.5,159.038 1453.5,569 1453.5,569 C1453.5,569 1124.23,569 1124.23,569 " fill="none" id="orders-orders_products_products" style="stroke:#2E8B57;stroke-width:1.0;"/><line style="stroke:#2E8B57;stroke-width:1.0;" x1="1449.5" x2="1457.5" y1="155.038" y2="155.038"/><line style="stroke:#2E8B57;stroke-width:1.0;" x1="1449.5" x2="1457.5" y1="158.038" y2="158.038"/><line style="stroke:#2E8B57;stroke-width:1.0;" x1="1453.5" x2="1453.5" y1="159.038" y2="151.038"/><line style="stroke:#2E8B57;stroke-width:1.0;" x1="1124.23" x2="1116.23" y1="569" y2="575"/><line style="stroke:#2E8B57;stroke-width:1.0;" x1="1124.23" x2="1116.23" y1="569" y2="563"/><line style="stroke:#2E8B57;stroke-width:1.0;" x1="1124.23" x2="1116.23" y1="569" y2="569"/><line style="stroke:#2E8B57;stroke-width:1.0;" x1="1126.23" x2="1126.23" y1="573" y2="565"/></g><!--link products to orders_products_products--><g id="link_products_orders_products_products"><path codeLine="98" d="M816.671,425 C816.671,425 961.75,425 961.75,425 C961.75,425 961.75,520.9081 961.75,520.9081 " fill="none" id="products-orders_products_products" style="stroke:#2E8B57;stroke-width:1.0;"/><line style="stroke:#2E8B57;stroke-width:1.0;" x1="812.671" x2="812.671" y1="429" y2="421"/><line style="stroke:#2E8B57;stroke-width:1.0;" x1="815.671" x2="815.671" y1="429" y2="421"/><line style="stroke:#2E8B57;stroke-width:1.0;" x1="816.671" x2="808.671" y1="425" y2="425"/><line style="stroke:#2E8B57;stroke-width:1.0;" x1="961.75" x2="967.75" y1="520.9081" y2="528.9081"/><line style="stroke:#2E8B57;stroke-width:1.0;" x1="961.75" x2="955.75" y1="520.9081" y2="528.9081"/><line style="stroke:#2E8B57;stroke-width:1.0;" x1="961.75" x2="961.75" y1="520.9081" y2="528.9081"/><line style="stroke:#2E8B57;stroke-width:1.0;" x1="965.75" x2="957.75" y1="518.9081" y2="518.9081"/></g><!--link games to games_genres_genres--><g id="link_games_games_genres_genres"><path codeLine="99" d="M405.975,79 C405.975,79 396.25,79 396.25,79 C396.25,79 396.25,340 396.25,340 C396.25,340 333.523,340 333.523,340 " fill="none" id="games-games_genres_genres" style="stroke:#2E8B57;stroke-width:1.0;"/><line style="stroke:#2E8B57;stroke-width:1.0;" x1="409.975" x2="409.975" y1="75" y2="83"/><line style="stroke:#2E8B57;stroke-width:1.0;" x1="406.975" x2="406.975" y1="75" y2="83"/><line style="stroke:#2E8B57;stroke-width:1.0;" x1="405.975" x2="413.975" y1="79" y2="79"/><line style="stroke:#2E8B57;stroke-width:1.0;" x1="333.523" x2="325.523" y1="340" y2="346"/><line style="stroke:#2E8B57;stroke-width:1.0;" x1="333.523" x2="325.523" y1="340" y2="334"/><line style="stroke:#2E8B57;stroke-width:1.0;" x1="333.523" x2="325.523" y1="340" y2="340"/><line style="stroke:#2E8B57;stroke-width:1.0;" x1="335.523" x2="335.523" y1="344" y2="336"/></g><!--link genres to games_genres_genres--><g id="link_genres_games_genres_genres"><path codeLine="100" d="M235,150.514 C235,150.514 235,292.223 235,292.223 " fill="none" id="genres-games_genres_genres" style="stroke:#2E8B57;stroke-width:1.0;"/><line style="stroke:#2E8B57;stroke-width:1.0;" x1="231" x2="239" y1="146.514" y2="146.514"/><line style="stroke:#2E8B57;stroke-width:1.0;" x1="231" x2="239" y1="149.514" y2="149.514"/><line style="stroke:#2E8B57;stroke-width:1.0;" x1="235" x2="235" y1="150.514" y2="142.514"/><line style="stroke:#2E8B57;stroke-width:1.0;" x1="235" x2="241" y1="292.223" y2="300.223"/><line style="stroke:#2E8B57;stroke-width:1.0;" x1="235" x2="229" y1="292.223" y2="300.223"/><line style="stroke:#2E8B57;stroke-width:1.0;" x1="235" x2="235" y1="292.223" y2="300.223"/><line style="stroke:#2E8B57;stroke-width:1.0;" x1="239" x2="231" y1="290.223" y2="290.223"/></g><!--link games to games_users_users--><g id="link_games_games_users_users"><path codeLine="101" d="M794.233,79 C794.233,79 814.75,79 814.75,79 C814.75,79 814.75,340 814.75,340 C814.75,340 856.364,340 856.364,340 " fill="none" id="games-games_users_users" style="stroke:#2E8B57;stroke-width:1.0;"/><line style="stroke:#2E8B57;stroke-width:1.0;" x1="790.233" x2="790.233" y1="83" y2="75"/><line style="stroke:#2E8B57;stroke-width:1.0;" x1="793.233" x2="793.233" y1="83" y2="75"/><line style="stroke:#2E8B57;stroke-width:1.0;" x1="794.233" x2="786.233" y1="79" y2="79"/><line style="stroke:#2E8B57;stroke-width:1.0;" x1="856.364" x2="864.364" y1="340" y2="334"/><line style="stroke:#2E8B57;stroke-width:1.0;" x1="856.364" x2="864.364" y1="340" y2="346"/><line style="stroke:#2E8B57;stroke-width:1.0;" x1="856.364" x2="864.364" y1="340" y2="340"/><line style="stroke:#2E8B57;stroke-width:1.0;" x1="854.364" x2="854.364" y1="336" y2="344"/></g><!--link users to games_users_users--><g id="link_users_games_users_users"><path codeLine="102" d="M945,159.01 C945,159.01 945,292.201 945,292.201 " fill="none" id="users-games_users_users" style="stroke:#2E8B57;stroke-width:1.0;"/><line style="stroke:#2E8B57;stroke-width:1.0;" x1="941" x2="949" y1="155.01" y2="155.01"/><line style="stroke:#2E8B57;stroke-width:1.0;" x1="941" x2="949" y1="158.01" y2="158.01"/><line style="stroke:#2E8B57;stroke-width:1.0;" x1="945" x2="945" y1="159.01" y2="151.01"/><line style="stroke:#2E8B57;stroke-width:1.0;" x1="945" x2="951" y1="292.201" y2="300.201"/><line style="stroke:#2E8B57;stroke-width:1.0;" x1="945" x2="939" y1="292.201" y2="300.201"/><line style="stroke:#2E8B57;stroke-width:1.0;" x1="945" x2="945" y1="292.201" y2="300.201"/><line style="stroke:#2E8B57;stroke-width:1.0;" x1="949" x2="941" y1="290.201" y2="290.201"/></g><!--SRC=[pLLjRzem4FwUNt5bqWGILRSFsuSgZSHQIj7K5p7Oj6aICl415ecDR3FAslxt-IL08A5GgQeM97ovvxdplTaveZXa746JGO9Lv2J5Ej21NMk0N3EzW4euY1mIdWoYtpmS2gv1iRzuzl43n28HycmaoIAgPdRXYML4bI0uohnF9xYetjVWOSWmeKzW78REyFI2o4bB91HvHz0eV6-8KNZYi0ZkxOOh9yDj9zx3kuPx2hOhEwEOfRpCidbfVyOoHSh8iSHOI9ft4OmPHL0Q9GgzcABoYXJrMD3i9MOoJZ08j9Y25Z0GMeiKA3FUD1Cy2DI4yIcH90KfPfoQFJXA-9JJ9oPCwnw4D8vpW1eJAkQCZs184eKvP4mudKkcDV8Cou5nGfI2Xm3CyuN4av7R-Dnc1VCnq-YGXfHYxfKAoKWYSczXYe1o2tWAJ8PkHg25N9eX6Tb5GGs8MifsHzTgO1Hgfz3hjI_0wB8EW9cc12rmVjNeDCwxpGvyRtH-jczQUHP55KisjSNRouqb4esqJxIbTjlNpM_TnlKT_6XthsvxNQU1NxStpUhdMjvkDgKli7jQvNud1Pt5kWvJBsJvhzvsLS3DBepCwMYlzM5u-JMASb7Pq_EwvJ59ZeHSx2KgJVHCxQLD9OknFvmbYQMsRxhDbY4M28huDfSGo1_24blBljbIlh1hQsFaz6McZFynjrbMYfAutdgGRkqPguCxQjaGPVA-GyHdwS3S7-Lfp9HnuKViDVhzrbNfALiKbuIlYHVtbMJ8fDBzWqwFkHaFP69gXks_gr3BVQ3jHRAyUftuEZVlMoVZ9xxlckp_woMw_EdOqA-Jzc1x8tMFv0w41mgxB-_kbL3VYMn4KaGFYMT9BW_9DRFllwRPKYzJvbg_1QnZS6XP29xvN00R3IceyfkNjsFdrcNTg3Xs1HuVZuyV7w2oh50bgFWohg7Y31YINv_dx71KQA6XhiH3o5kXbpJ4ahomZrNcwjbCYvH_]--></g></svg>